HIERARCHY
ROOT root
{
	OFFSET	0	13.1	24.9
	CHANNELS 6  Xposition Yposition Zposition Xrotation Yrotation Zrotation
	JOINT spine_1
	{
		OFFSET	0	9.99999	0
		CHANNELS 3  Xrotation Yrotation Zrotation
		JOINT spine_2
		{
			OFFSET	0	112	-10
			CHANNELS 3  Xrotation Yrotation Zrotation
			JOINT spine_3
			{
				OFFSET	0	206.5	19.3
				CHANNELS 3  Xrotation Yrotation Zrotation
				JOINT spine_4
				{
					OFFSET	0	110.4	14.6
					CHANNELS 3  Xrotation Yrotation Zrotation
					JOINT neck_1
					{
						OFFSET	0	71.8	-50.3
						CHANNELS 3  Xrotation Yrotation Zrotation
						JOINT neck_2
						{
							OFFSET	0	86.2	-25.8
							CHANNELS 3  Xrotation Yrotation Zrotation
							JOINT head_ee
							{
								OFFSET	0	179.8	-8.7
								CHANNELS 3  Xrotation Yrotation Zrotation
								End Site
								{
									OFFSET	1	0	0
								}
							}
						}
					}
					JOINT left_clavicle
					{
						OFFSET	-43.2	22.4	-70.8
						CHANNELS 3  Xrotation Yrotation Zrotation
						JOINT left_shoulder
						{
							OFFSET	-93.9	-5.79999	48.7
							CHANNELS 3  Xrotation Yrotation Zrotation
							JOINT left_elbow
							{
								OFFSET	-291.4	-30.8	15.2
								CHANNELS 3  Xrotation Yrotation Zrotation
								JOINT left_lowarm_twist
								{
									OFFSET	-110.7	-3.89999	13.6
									CHANNELS 3  Xrotation Yrotation Zrotation
									JOINT left_hand
									{
										OFFSET	-110.7	-3.89999	13.6
										CHANNELS 3  Xrotation Yrotation Zrotation
										JOINT left_ee
										{
											OFFSET	-80.8	-5.10001	12.1
											CHANNELS 3  Xrotation Yrotation Zrotation
											End Site
											{
												OFFSET	1	0	0
											}
										}
									}
								}
							}
						}
					}
					JOINT right_clavicle
					{
						OFFSET	43.2	22.4	-70.8
						CHANNELS 3  Xrotation Yrotation Zrotation
						JOINT right_shoulder
						{
							OFFSET	93.9	-5.79999	48.7
							CHANNELS 3  Xrotation Yrotation Zrotation
							JOINT right_elbow
							{
								OFFSET	291.4	-30.8	15.2
								CHANNELS 3  Xrotation Yrotation Zrotation
								JOINT right_lowarm_twist
								{
									OFFSET	110.7	-3.89999	13.6
									CHANNELS 3  Xrotation Yrotation Zrotation
									JOINT right_hand
									{
										OFFSET	110.7	-3.89999	13.6
										CHANNELS 3  Xrotation Yrotation Zrotation
										JOINT right_ee
										{
											OFFSET	80.8	-5.10001	12.1
											CHANNELS 3  Xrotation Yrotation Zrotation
											End Site
											{
												OFFSET	1	0	0
											}
										}
									}
								}
							}
						}
					}
				}
			}
		}
	}
	JOINT left_hip
	{
		OFFSET	-82.8	-127.5	0.300001
		CHANNELS 3  Xrotation Yrotation Zrotation
		JOINT left_knee
		{
			OFFSET	-28.2	-396.7	2.2
			CHANNELS 3  Xrotation Yrotation Zrotation
			JOINT left_ankle
			{
				OFFSET	-11.7	-411.3	35.4
				CHANNELS 3  Xrotation Yrotation Zrotation
				JOINT left_toes
				{
					OFFSET	0	-60	-88.6
					CHANNELS 3  Xrotation Yrotation Zrotation
					JOINT left_foot_ee
					{
						OFFSET	-22.5	-16.5	-42.2
						CHANNELS 3  Xrotation Yrotation Zrotation
						End Site
						{
							OFFSET	1	0	0
						}
					}
				}
			}
		}
	}
	JOINT right_hip
	{
		OFFSET	82.8	-127.5	0.300001
		CHANNELS 3  Xrotation Yrotation Zrotation
		JOINT right_knee
		{
			OFFSET	28.2	-396.7	2.2
			CHANNELS 3  Xrotation Yrotation Zrotation
			JOINT right_ankle
			{
				OFFSET	11.7	-411.3	35.4
				CHANNELS 3  Xrotation Yrotation Zrotation
				JOINT right_toes
				{
					OFFSET	0	-60	-88.6
					CHANNELS 3  Xrotation Yrotation Zrotation
					JOINT right_foot_ee
					{
						OFFSET	22.5	-16.5	-42.2
						CHANNELS 3  Xrotation Yrotation Zrotation
						End Site
						{
							OFFSET	1	0	0
						}
					}
				}
			}
		}
	}
}
MOTION
Frames: 9
Frame Time: 0.02
2944.21 705.507 -505.887 43.3219 -84.7965 44.5252 0.817411 -0.165091 -0.439078 0.817508 -0.136817 -0.448693 0.818628 -0.0461326 -0.466815 0.818343 -0.119278 -0.453671 -17.9732 2.19342 -8.84741 -17.8548 9.03082 -7.44233 -0.0 0.0 -0.0 7.17574 23.6068 12.6825 -22.9365 -5.34288 60.7171 0.179303 -5.0759 0.00794755 -11.9746 -0.572351 1.41724 1.89094 29.9654 22.2882 -0.0 0.0 -0.0 9.68248 2.09958 -19.0797 2.61256 18.2119 -58.0737 1.6482 39.2276 -0.587381 -65.7132 6.00061 -5.24323 -9.52675 -22.9165 55.9443 0.0 0.0 0.0 17.27 3.06319 -9.15485 -16.9793 0.31937 2.57654 17.5061 17.991 -2.45919 -36.1442 0.0 0.0 -0.0 0.0 -0.0 -1.80104 -8.23337 -4.34865 -5.08516 -0.175717 -0.760384 19.738 7.8644 2.79312 -1.03467 0.0 0.0 0.0 0.0 0.0 
2952.0 703.758 -505.273 45.3314 -84.9847 46.6439 0.724495 -0.0801596 -0.474359 0.724619 -0.0498128 -0.478498 0.725077 0.0458126 -0.478897 0.724759 -0.0303944 -0.480123 -17.6401 1.28586 -9.09154 -17.4754 7.47077 -8.03303 -0.0 0.0 -0.0 6.86838 23.9959 12.2069 -23.3985 -4.10107 60.6469 0.196746 -5.56674 0.00956529 -12.4702 -0.602342 1.47312 2.03165 29.7704 23.0737 -0.0 0.0 -0.0 9.29423 2.96113 -18.292 3.83507 17.3346 -58.7263 1.65172 39.2873 -0.589604 -67.2548 6.19628 -5.26918 -9.30275 -22.6335 53.864 0.0 0.0 0.0 18.6833 2.71552 -9.24357 -14.1274 0.319362 2.13903 12.3868 18.7029 -1.77812 -35.2692 0.0 0.0 -0.0 0.0 -0.0 -2.20356 -6.78157 -4.43482 -5.41531 -0.184781 -0.81024 19.6987 7.24647 2.78025 -1.09331 0.0 0.0 0.0 0.0 0.0 
2962.16 700.238 -504.328 51.4802 -85.0005 53.2445 0.658022 -0.0292046 -0.578375 0.658208 0.00765748 -0.579061 0.658181 0.122702 -0.565964 0.657736 0.0317805 -0.578239 -17.8392 1.01228 -9.0622 -17.6675 6.89822 -8.09827 -0.0 0.0 -0.0 6.50796 23.9704 11.7005 -23.4619 -3.14262 61.146 0.195041 -5.51877 0.00940056 -12.4969 -0.603971 1.47612 2.25929 30.1531 24.5034 -0.0 0.0 -0.0 9.05137 3.55811 -17.7954 4.53519 19.0766 -58.6605 1.67081 39.6103 -0.601734 -67.3948 6.21409 -5.27128 -9.11555 -22.0075 52.8187 0.0 0.0 0.0 20.4026 2.18628 -9.38158 -11.0697 0.295172 1.67056 8.93461 19.1088 -1.29909 -34.5519 0.0 0.0 -0.0 0.0 -0.0 -2.51095 -7.24964 -4.77727 -5.58551 -0.189341 -0.835962 19.9966 6.91868 2.81404 -1.4493 0.0 0.0 0.0 0.0 0.0 
2972.94 696.871 -503.862 53.2905 -85.2955 55.4983 0.624542 -0.016166 -0.635787 0.624767 0.0243227 -0.635527 0.624555 0.150632 -0.617897 0.624026 0.0511584 -0.633931 -18.4619 0.6194 -8.14739 -18.3167 5.55476 -7.36609 -0.0 0.0 -0.0 6.07332 24.0584 11.0835 -24.0779 -2.35393 61.6287 0.25102 -7.08839 0.0155475 -12.1067 -0.580297 1.43216 2.75774 30.089 27.5169 -0.0 0.0 -0.0 9.09787 3.46267 -17.8911 5.25317 19.2284 -58.6678 1.70777 40.227 -0.62545 -67.6265 6.24355 -5.27465 -8.81647 -22.027 49.6941 0.0 0.0 0.0 20.9185 1.53867 -9.74565 -9.10968 0.266532 1.37118 3.42718 19.413 -0.506724 -33.9299 0.0 0.0 -0.0 0.0 -0.0 -3.03077 -5.0805 -5.06523 -6.53682 -0.213422 -0.979965 22.9481 7.41552 3.18728 -0.905582 0.0 0.0 0.0 0.0 0.0 
2984.3 689.823 -500.956 58.6652 -85.0785 61.3539 0.534002 0.0292303 -0.762305 0.534322 0.0776771 -0.7589 0.533365 0.228694 -0.727781 0.532644 0.110888 -0.754763 -18.5443 -0.00963206 -7.46455 -18.4095 3.96705 -6.9685 -0.0 0.0 -0.0 5.75804 24.4347 10.6198 -24.4687 -2.66394 61.5712 0.230505 -6.51429 0.013118 -13.2123 -0.648156 1.5563 3.06204 30.3859 29.4601 -0.0 0.0 -0.0 9.03201 3.63903 -17.7561 6.10401 19.6685 -58.8014 1.76228 41.1166 -0.660978 -67.7917 6.26457 -5.27698 -8.21389 -21.7492 44.4308 0.0 0.0 0.0 22.3819 0.895462 -9.89335 -6.1865 0.204832 0.926891 -2.01947 19.1576 0.302112 -33.8984 0.0 0.0 -0.0 0.0 -0.0 -3.62994 -3.86778 -5.75368 -8.42557 -0.254126 -1.26693 27.509 7.41669 3.72318 -0.893601 0.0 0.0 0.0 0.0 0.0 
2995.35 686.374 -501.531 57.2948 -84.4676 60.418 0.478483 -0.0224515 -0.806137 0.478844 0.0288889 -0.805932 0.478544 0.191107 -0.783481 0.477694 0.064977 -0.803828 -18.6137 -1.04473 -8.30379 -18.4286 2.41288 -8.15253 -0.0 0.0 -0.0 5.55097 24.5456 10.3274 -24.4312 -1.7176 61.2533 0.259134 -7.31507 0.0165646 -12.8973 -0.628579 1.52107 3.56182 30.647 32.7063 -0.0 0.0 -0.0 9.12262 3.98801 -17.9501 6.13392 19.8028 -58.6124 1.7721 41.2745 -0.667451 -68.5623 6.36268 -5.28704 -7.96712 -21.7929 42.2491 0.0 0.0 0.0 23.4709 0.0983494 -9.81972 -5.94959 0.198839 0.891028 -3.50902 16.8233 0.522939 -33.8069 0.0 0.0 -0.0 0.0 -0.0 -5.23723 -2.99162 -5.78332 -7.6261 -0.238052 -1.14531 28.7266 8.17309 3.87216 -0.608473 0.0 0.0 0.0 0.0 0.0 
3006.94 686.43 -498.696 51.0971 -84.2114 54.2253 0.267933 -0.0630254 -0.788218 0.268279 -0.0127429 -0.790631 0.268591 0.150085 -0.776361 0.26775 0.0255934 -0.79032 -18.8445 -0.57693 -6.29467 -18.7404 2.21608 -6.09391 -0.0 0.0 -0.0 5.54821 24.645 10.3179 -24.0524 -1.9129 60.976 0.274088 -7.73224 0.0185227 -14.2182 -0.711969 1.6681 3.86478 30.8366 34.742 -0.0 0.0 -0.0 9.57318 1.92187 -18.8465 6.81343 20.0552 -58.5814 1.80645 41.8203 -0.690232 -69.9952 6.54541 -5.30222 -7.52988 -22.2311 38.2116 0.0 0.0 0.0 24.0713 -0.15119 -9.79025 -5.51196 0.18738 0.824845 -3.60603 13.9596 0.534278 -33.7495 0.0 0.0 -0.0 0.0 -0.0 -5.96804 -3.20471 -6.31105 -7.77647 -0.241205 -1.16817 30.8388 9.28184 4.12281 -0.349301 0.0 0.0 0.0 0.0 0.0 
3018.57 682.93 -498.522 44.5621 -83.8511 47.8836 0.306625 -0.0881267 -0.799138 0.306979 -0.0370986 -0.803126 0.307645 0.128275 -0.793684 0.306765 0.00132211 -0.803981 -18.42 -0.613636 -5.18433 -18.3481 1.59686 -5.07383 -0.0 0.0 -0.0 5.62429 24.4404 10.4346 -23.7865 -2.23412 60.3226 0.289716 -8.16733 0.0206842 -15.2958 -0.782505 1.78663 4.14873 30.9493 36.6984 -0.0 0.0 -0.0 9.85438 0.725951 -19.3868 6.76943 20.0365 -58.4968 1.76985 41.2383 -0.665965 -71.0187 6.6761 -5.31024 -6.98805 -22.3363 34.0084 0.0 0.0 0.0 23.6426 -0.535239 -9.75028 -3.63602 0.132536 0.542183 -3.20693 9.96554 0.472791 -33.3448 0.0 0.0 -0.0 0.0 -0.0 -6.55267 -3.18278 -6.38526 -8.05687 -0.246924 -1.21082 31.5835 8.8234 4.19296 -1.13823 0.0 0.0 0.0 0.0 0.0 
3029.63 682.084 -499.986 47.2823 -83.5385 50.6978 0.14126 -0.0606734 -0.843099 0.141656 -0.00690378 -0.845251 0.141923 0.168863 -0.828242 0.140967 0.035943 -0.844515 -18.8126 -0.291639 -4.08254 -18.7695 1.59781 -3.91898 -0.0 0.0 -0.0 5.80714 24.3607 10.6924 -23.4393 -2.31597 60.1671 0.300831 -8.4762 0.0222928 -15.4162 -0.790523 1.79979 4.3937 31.0047 38.4339 -0.0 0.0 -0.0 9.82641 -1.2768 -19.2333 6.75035 20.4159 -58.9766 1.80353 41.7741 -0.688281 -72.0046 6.80206 -5.31574 -6.53257 -22.122 30.9422 0.0 0.0 0.0 24.3223 -0.700446 -9.99255 -3.91878 0.141395 0.584674 -4.94773 8.90586 0.731698 -33.417 0.0 0.0 -0.0 0.0 -0.0 -7.12947 -3.11051 -6.1516 -8.95641 -0.263861 -1.34781 31.5723 8.76703 4.1907 -1.10168 0.0 0.0 0.0 0.0 0.0 
